# Blender 5.0.0
# www.blender.org
mtllib fangding.mtl
usemtl MyMaterial
o 立方体
v -7.000000 5.000000 10.000000
v 0.000000 9.000000 0.000000
v -7.000000 5.000000 -10.000000
v 0.000000 9.000000 0.000000
v 7.000000 5.000000 10.000000
v 0.000000 9.000000 0.000000
v 7.000000 5.000000 -10.000000
v 0.000000 9.000000 0.000000
vn -0.4961 0.8682 -0.0000
vn -0.0000 0.9285 -0.3714
vn 0.4961 0.8682 -0.0000
vn -0.0000 0.9285 0.3714
vn -0.0000 -1.0000 -0.0000
vn -0.0000 1.0000 -0.0000
vt 0.000000 0.001550
vt 0.499901 0.499973
vt 0.500014 0.500105
vt 0.000000 1.001072
vt 0.500023 0.499983
vt 1.002000 1.001072
vt 0.500014 0.499983
vt 1.002000 0.001550
vt 1.502000 1.001072
vt 1.502000 0.001550
s 0
f 1/1/1 2/2/1 4/3/1 3/4/1
f 3/4/2 4/3/2 8/5/2 7/6/2
f 7/6/3 8/5/3 6/7/3 5/8/3
f 5/8/4 6/7/4 2/2/4 1/1/4
f 3/9/5 7/6/5 5/8/5 1/10/5
f 8/5/6 4/3/6 2/2/6 6/7/6
